<svg width="250" height="250" viewBox="0 0 250 250" fill="none" xmlns="http://www.w3.org/2000/svg">
<path fill-rule="evenodd" clip-rule="evenodd" d="M159.559 31.4371C158.015 31.7339 157.184 33.1202 155.681 37.9087C154.886 40.4426 151.766 50.3846 148.748 60.0022C145.73 69.6199 143.238 77.5167 143.209 77.5511C143.181 77.5851 141.775 74.3818 140.085 70.4326C134.488 57.3514 134.525 57.4272 133.44 56.6956C132.218 55.872 129.679 55.5198 126.963 55.7971C123.825 56.1177 122.88 56.7872 122.192 59.1771C121.573 61.3303 123.287 64.0997 125.493 64.5126C126.073 64.6209 126.679 64.8691 126.841 65.0641C127.24 65.5454 128.735 69.0031 137.156 88.9276C138.232 91.4739 139.469 93.9536 139.904 94.4376C140.914 95.5611 142.595 95.9526 145.352 95.7069C148.097 95.4621 148.989 95.0083 149.635 93.5268C149.918 92.8768 152.539 84.7544 155.459 75.4771C158.379 66.1999 161.91 55.0893 163.306 50.7863L165.843 42.9634L190.836 42.8941C213.485 42.8316 215.918 42.7768 216.771 42.3098C218.267 41.4924 218.623 40.484 218.623 37.0752C218.623 33.6562 218.224 32.7528 216.273 31.7611C215.281 31.257 213.326 31.2226 187.732 31.2616C172.619 31.2845 159.942 31.3634 159.559 31.4371ZM34.0529 42.0588C33.4578 42.1984 32.5838 42.7446 32.1103 43.2726L31.25 44.2324L31.3298 130.034C31.4087 214.71 31.4177 215.848 32.0197 216.84C33.3007 218.952 25.5746 218.798 125.637 218.704C212.768 218.623 216.171 218.599 216.977 218.053C218.339 217.132 218.874 215.239 218.726 211.868C218.588 208.727 218.208 207.776 216.692 206.786C215.9 206.268 211.409 206.236 129.613 206.161L43.3705 206.081L43.2888 182.329C43.2441 169.266 43.1708 133.203 43.1258 102.19C43.0811 71.1773 42.9591 45.3788 42.8551 44.86C42.5958 43.5673 41.5005 42.476 40.0633 42.078C38.6842 41.6963 35.641 41.6868 34.0529 42.0588ZM195.112 75.3394C187.667 77.1385 183.172 84.1118 184.452 91.8805C184.578 92.6466 185.102 94.1999 185.618 95.3324L186.554 97.3915L177.311 111.117C172.227 118.666 166.649 126.931 164.914 129.485C163.18 132.038 160.036 136.683 157.927 139.807L154.093 145.487L152.983 145.292C147.989 144.415 144.241 145.139 140.221 147.758C139.468 148.249 139.374 148.232 137.892 147.349C124.2 139.189 120.451 136.926 120.12 136.622C119.864 136.386 119.696 135.177 119.642 133.181C119.565 130.354 119.466 129.912 118.415 127.746C115.912 122.587 110.685 119.426 104.657 119.426C96.2917 119.426 89.9184 125.63 89.937 133.755C89.941 135.577 90.5098 137.962 91.3046 139.494C91.7654 140.382 91.7803 140.601 91.4105 141.042C90.1158 142.585 64.5815 171.033 58.5854 177.613C55.5959 180.894 55.041 181.911 55.2472 183.733C55.4332 185.379 56.2205 186.541 57.6664 187.303C59.1691 188.095 62.4697 187.879 63.851 186.899C64.3965 186.511 70.7263 179.632 77.9171 171.612C85.108 163.592 92.6263 155.219 94.6245 153.006C96.623 150.794 98.5156 148.662 98.8308 148.27C99.3974 147.565 99.4231 147.563 101.253 148.038C104.975 149.005 108.92 148.468 112.5 146.509L114.419 145.458L123.521 151.052C128.527 154.129 133.059 156.854 133.591 157.108C134.542 157.562 134.562 157.616 134.718 160.24C135.066 166.081 138.5 170.87 143.881 173.02C145.419 173.634 146.218 173.733 149.715 173.737L153.767 173.743L156.164 172.562C163.232 169.08 166.226 161.416 163.334 154.21C162.584 152.34 162.54 152.036 162.926 151.403C163.165 151.013 170.452 140.149 179.12 127.261L194.88 103.827L198.679 103.799C201.879 103.775 202.765 103.657 204.293 103.054C207.744 101.691 210.968 98.3902 212.323 94.8335C212.922 93.2597 213.035 92.3733 213.035 89.2328C213.035 85.5498 213.02 85.4721 211.878 83.1703C208.775 76.9126 201.897 73.7 195.112 75.3394Z" fill="white"/>
</svg>
