<svg width="512" height="512" viewBox="0 0 512 512" fill="none" xmlns="http://www.w3.org/2000/svg">
<path fill-rule="evenodd" clip-rule="evenodd" d="M326.776 64.3832C323.614 64.9911 321.912 67.8301 318.834 77.637C317.206 82.8264 310.816 103.188 304.636 122.885C298.455 142.582 293.351 158.754 293.293 158.825C293.235 158.894 290.356 152.334 286.895 144.246C275.432 117.456 275.507 117.611 273.284 116.113C270.781 114.426 265.583 113.704 260.02 114.272C253.593 114.929 251.658 116.3 250.25 121.195C248.982 125.604 252.491 131.276 257.01 132.122C258.197 132.344 259.439 132.852 259.77 133.251C260.588 134.237 263.649 141.318 280.895 182.124C283.098 187.338 285.632 192.417 286.523 193.408C288.591 195.709 292.034 196.511 297.681 196.008C303.304 195.506 305.13 194.577 306.452 191.543C307.032 190.212 312.399 173.577 318.379 154.577C324.36 135.577 331.592 112.823 334.45 104.01L339.647 87.9891L390.833 87.8471C437.217 87.7191 442.199 87.6069 443.948 86.6504C447.01 84.9764 447.741 82.9113 447.741 75.9301C447.741 68.9279 446.922 67.0777 442.927 65.0468C440.896 64.0143 436.892 63.9439 384.474 64.0238C353.524 64.0707 327.56 64.2323 326.776 64.3832ZM69.7404 86.1364C68.5215 86.4222 66.7316 87.541 65.7619 88.6223L64 90.5879L64.1634 266.309C64.3249 439.726 64.3434 442.056 65.5763 444.089C68.1998 448.413 52.3768 448.098 257.305 447.906C435.749 447.74 442.718 447.691 444.369 446.573C447.158 444.687 448.254 440.81 447.951 433.906C447.669 427.473 446.889 425.525 443.786 423.498C442.162 422.437 432.966 422.371 265.448 422.217L88.8227 422.054L88.6555 373.41C88.5639 346.656 88.4139 272.8 88.3217 209.286C88.2301 145.771 87.9802 92.9357 87.7672 91.8734C87.2363 89.2258 84.993 86.9908 82.0497 86.1757C79.2253 85.3941 72.9927 85.3745 69.7404 86.1364ZM399.59 154.295C384.341 157.98 375.137 172.261 377.757 188.171C378.015 189.74 379.09 192.921 380.145 195.241L382.062 199.458L363.133 227.567C352.721 243.027 341.297 259.955 337.745 265.184C334.192 270.414 327.753 279.927 323.434 286.325L315.583 297.958L313.309 297.558C303.08 295.762 295.406 297.245 287.172 302.608C285.63 303.613 285.437 303.579 282.403 301.771C254.361 285.058 246.684 280.424 246.006 279.801C245.482 279.319 245.138 276.842 245.027 272.755C244.87 266.965 244.665 266.059 242.513 261.623C237.388 251.058 226.683 244.584 214.338 244.584C197.205 244.584 184.153 257.291 184.191 273.931C184.199 277.661 185.364 282.547 186.992 285.684C187.935 287.502 187.966 287.95 187.209 288.853C184.557 292.013 132.263 350.276 119.983 363.752C113.86 370.47 112.724 372.554 113.146 376.286C113.527 379.656 115.14 382.036 118.101 383.596C121.178 385.218 127.938 384.776 130.767 382.768C131.884 381.975 144.848 367.887 159.574 351.462C174.301 335.036 189.699 317.889 193.791 313.357C197.884 308.825 201.76 304.46 202.405 303.658C203.566 302.214 203.619 302.209 207.367 303.183C214.989 305.161 223.068 304.063 230.399 300.05L234.331 297.898L252.972 309.355C263.224 315.657 272.504 321.238 273.594 321.758C275.543 322.687 275.583 322.798 275.903 328.172C276.615 340.134 283.647 349.942 294.668 354.345C297.818 355.603 299.454 355.804 306.616 355.814L314.915 355.825L319.825 353.406C334.3 346.275 340.432 330.58 334.509 315.822C332.971 311.992 332.881 311.369 333.673 310.074C334.161 309.275 349.085 287.025 366.837 260.63L399.114 212.637L406.895 212.58C413.448 212.531 415.264 212.29 418.393 211.055C425.459 208.263 432.063 201.503 434.837 194.219C436.065 190.996 436.295 189.18 436.295 182.749C436.295 175.206 436.265 175.047 433.927 170.333C427.571 157.517 413.485 150.938 399.59 154.295Z" fill="white"/>
</svg>
