<svg width="60" height="60" viewBox="0 0 60 60" fill="none" xmlns="http://www.w3.org/2000/svg">
<path fill-rule="evenodd" clip-rule="evenodd" d="M38.2941 7.5449C37.9235 7.61614 37.7241 7.94884 37.3634 9.09809C37.1725 9.70622 36.4238 12.0923 35.6995 14.4005C34.9752 16.7088 34.377 18.604 34.3703 18.6123C34.3635 18.6204 34.0261 17.8516 33.6205 16.9038C32.2772 13.7643 32.286 13.7825 32.0255 13.6069C31.7322 13.4093 31.123 13.3247 30.4712 13.3913C29.718 13.4683 29.4912 13.6289 29.3262 14.2025C29.1775 14.7193 29.5888 15.3839 30.1184 15.483C30.2574 15.509 30.403 15.5686 30.4418 15.6154C30.5376 15.7309 30.8963 16.5607 32.9173 21.3426C33.1756 21.9537 33.4725 22.5489 33.5769 22.665C33.8193 22.9347 34.2227 23.0286 34.8846 22.9696C35.5434 22.9109 35.7574 22.802 35.9123 22.4464C35.9803 22.2904 36.6093 20.341 37.3101 18.1145C38.011 15.888 38.8584 13.2214 39.1934 12.1887L39.8024 10.3112L45.8007 10.2946C51.2363 10.2796 51.8202 10.2664 52.0251 10.1543C52.384 9.95817 52.4696 9.71617 52.4696 8.89805C52.4696 8.07749 52.3737 7.86067 51.9055 7.62268C51.6675 7.50167 51.1983 7.49343 45.0556 7.50279C41.4286 7.50828 38.386 7.52723 38.2941 7.5449ZM8.1727 10.0941C8.02986 10.1276 7.82011 10.2587 7.70648 10.3854L7.5 10.6158L7.51915 31.2081C7.53808 51.5304 7.54024 51.8035 7.68472 52.0417C7.99216 52.5484 6.1379 52.5114 30.153 52.489C51.0644 52.4695 51.881 52.4638 52.0745 52.3328C52.4014 52.1117 52.5298 51.6575 52.4943 50.8483C52.4612 50.0945 52.3698 49.8662 52.0061 49.6287C51.8159 49.5044 50.7382 49.4967 31.1072 49.4785L10.4089 49.4594L10.3893 43.759C10.3786 40.6237 10.361 31.9688 10.3502 24.5257C10.3395 17.0825 10.3102 10.8909 10.2852 10.7664C10.223 10.4561 9.96012 10.1942 9.6152 10.0987C9.28421 10.0071 8.55384 10.0048 8.1727 10.0941ZM46.827 18.0815C45.04 18.5132 43.9613 20.1868 44.2684 22.0513C44.2987 22.2352 44.4246 22.608 44.5482 22.8798L44.7729 23.374L42.5546 26.668C41.3345 28.4798 39.9957 30.4635 39.5795 31.0763C39.1632 31.6891 38.4086 32.804 37.9025 33.5537L36.9824 34.917L36.7159 34.8701C35.5172 34.6596 34.6179 34.8334 33.653 35.4619C33.4723 35.5796 33.4497 35.5756 33.0942 35.3638C29.808 33.4053 28.9082 32.8622 28.8288 32.7892C28.7674 32.7327 28.7271 32.4424 28.7141 31.9635C28.6957 31.2849 28.6717 31.1788 28.4195 30.6589C27.8189 29.4209 26.5644 28.6622 25.1177 28.6622C23.11 28.6622 21.5804 30.1513 21.5849 32.1013C21.5859 32.5384 21.7224 33.111 21.9131 33.4786C22.0237 33.6917 22.0273 33.7441 21.9385 33.85C21.6278 34.2203 15.4996 41.048 14.0605 42.6272C13.343 43.4145 13.2099 43.6587 13.2593 44.096C13.304 44.491 13.4929 44.7698 13.8399 44.9527C14.2006 45.1428 14.9927 45.091 15.3242 44.8557C15.4552 44.7627 16.9743 43.1117 18.7001 41.1869C20.4259 39.2621 22.2303 37.2526 22.7099 36.7215C23.1895 36.1904 23.6438 35.679 23.7194 35.5849C23.8554 35.4157 23.8616 35.4151 24.3008 35.5292C25.194 35.7611 26.1408 35.6324 26.9999 35.1621L27.4607 34.9099L29.6451 36.2525C30.8465 36.991 31.9341 37.6451 32.0618 37.706C32.2902 37.8149 32.2949 37.8279 32.3324 38.4576C32.4159 39.8595 33.2399 41.0088 34.5314 41.5248C34.9005 41.6723 35.0922 41.6958 35.9316 41.6969L36.9041 41.6983L37.4795 41.4148C39.1758 40.5791 39.8944 38.7399 39.2003 37.0104C39.0201 36.5615 39.0095 36.4886 39.1023 36.3368C39.1595 36.2432 40.9084 33.6357 42.9887 30.5425L46.7712 24.9184L47.683 24.9117C48.4509 24.906 48.6637 24.8777 49.0304 24.733C49.8585 24.4058 50.6323 23.6137 50.9574 22.76C51.1013 22.3823 51.1284 22.1696 51.1284 21.4159C51.1284 20.5319 51.1248 20.5133 50.8508 19.9609C50.106 18.459 48.4552 17.688 46.827 18.0815Z" fill="white"/>
</svg>
