<?xml version="1.0" standalone="no"?>
<!DOCTYPE svg PUBLIC "-//W3C//DTD SVG 20010904//EN"
 "http://www.w3.org/TR/2001/REC-SVG-20010904/DTD/svg10.dtd">
<svg version="1.0" xmlns="http://www.w3.org/2000/svg"
 width="1024.000000pt" height="1024.000000pt" viewBox="0 0 1024.000000 1024.000000"
 preserveAspectRatio="xMidYMid meet">

<g transform="translate(0.000000,1024.000000) scale(0.100000,-0.100000)"
fill="#000000" stroke="none">
<path d="M6798 8443 c243 -2 641 -2 885 0 243 1 44 2 -443 2 -487 0 -686 -1
-442 -2z"/>
<path d="M6291 8415 c-29 -25 -76 -126 -68 -148 2 -6 11 14 21 45 21 69 41 97
80 114 17 7 23 13 14 14 -9 0 -30 -11 -47 -25z"/>
<path d="M8157 8425 c32 -13 49 -37 64 -84 l7 -26 1 29 c1 33 -56 96 -85 96
-13 -1 -8 -6 13 -15z"/>
<path d="M6161 8077 c-29 -94 -82 -264 -118 -376 -35 -111 -62 -205 -59 -208
2 -3 9 10 14 29 5 18 35 112 65 208 117 370 159 511 154 516 -2 2 -27 -74 -56
-169z"/>
<path d="M8220 8181 c0 -17 -10 -42 -24 -58 l-24 -28 -821 -3 -822 -2 -10 -27
c-5 -14 -8 -31 -6 -37 2 -6 7 4 11 22 l8 32 815 0 815 0 34 34 c24 24 34 43
34 65 0 17 -2 31 -5 31 -3 0 -5 -13 -5 -29z"/>
<path d="M2258 8084 c-62 -33 -58 120 -56 -2081 l3 -2008 5 2015 c3 1108 8
2022 13 2030 15 30 53 45 127 51 l75 6 -70 1 c-45 1 -80 -4 -97 -14z"/>
<path d="M2467 8091 c50 -9 80 -33 92 -75 8 -26 9 -28 10 -7 1 14 -12 36 -33
57 -28 28 -41 34 -72 33 l-39 -2 42 -6z"/>
<path d="M6465 7895 c-20 -64 -35 -119 -33 -121 3 -2 21 49 41 113 20 64 34
119 32 121 -2 2 -20 -49 -40 -113z"/>
<path d="M6365 7583 c-86 -269 -97 -305 -92 -310 3 -2 12 19 21 49 8 29 42
138 75 242 34 105 59 191 57 194 -2 2 -30 -77 -61 -175z"/>
<path d="M5205 7640 c-11 -4 -31 -19 -44 -34 -48 -51 -34 -178 23 -208 16 -8
15 -4 -8 20 -58 62 -40 186 30 212 40 16 240 12 273 -4 34 -18 38 -26 166
-328 88 -209 150 -345 131 -288 -9 28 -226 535 -243 569 -31 60 -62 71 -193
70 -63 0 -124 -4 -135 -9z"/>
<path d="M5896 7229 c-44 -140 -81 -261 -84 -269 -3 -8 -2 -12 1 -9 10 8 168
511 164 522 -1 5 -38 -105 -81 -244z"/>
<path d="M5244 7376 c37 -12 42 -18 74 -94 19 -45 37 -81 39 -79 5 6 -57 150
-70 163 -7 7 -28 15 -47 18 -35 5 -35 5 4 -8z"/>
<path d="M6253 7227 c-34 -97 -94 -299 -91 -303 3 -2 28 71 57 162 29 91 51
168 49 170 -2 2 -9 -11 -15 -29z"/>
<path d="M5362 7181 c33 -86 162 -380 165 -378 4 4 -17 56 -106 265 -29 67
-55 122 -58 122 -2 0 -3 -4 -1 -9z"/>
<path d="M7568 7033 c12 -2 30 -2 40 0 9 3 -1 5 -23 4 -22 0 -30 -2 -17 -4z"/>
<path d="M7503 7023 c9 -2 23 -2 30 0 6 3 -1 5 -18 5 -16 0 -22 -2 -12 -5z"/>
<path d="M7679 7020 c125 -23 249 -111 316 -224 19 -33 35 -55 35 -49 0 20
-78 129 -122 169 -59 54 -164 104 -230 109 l-53 4 54 -9z"/>
<path d="M7405 6999 c-121 -49 -216 -157 -257 -292 -17 -56 -20 -86 -15 -156
4 -80 36 -193 56 -206 5 -2 -3 23 -17 58 -55 136 -37 308 44 428 55 83 125
134 234 175 19 7 28 13 20 13 -8 0 -37 -9 -65 -20z"/>
<path d="M5780 6985 c0 -5 5 -17 10 -25 5 -8 10 -10 10 -5 0 6 -5 17 -10 25
-5 8 -10 11 -10 5z"/>
<path d="M6101 6744 c-29 -91 -51 -168 -48 -170 2 -2 27 71 56 162 29 91 51
168 48 170 -2 2 -27 -71 -56 -162z"/>
<path d="M5534 6780 c8 -30 89 -220 92 -217 2 2 -7 30 -20 63 -26 66 -79 177
-72 154z"/>
<path d="M8038 6700 c4 -19 7 -78 7 -130 0 -52 -3 -111 -7 -130 -7 -33 -6 -33
7 5 17 52 17 198 0 250 -13 38 -14 38 -7 5z"/>
<path d="M5631 6545 c0 -5 6 -21 14 -35 8 -14 14 -20 14 -15 0 6 -6 21 -14 35
-8 14 -14 21 -14 15z"/>
<path d="M6017 6476 c-20 -63 -56 -95 -109 -97 l-33 -2 30 -4 c51 -8 92 22
115 85 12 30 19 59 18 64 -2 6 -12 -15 -21 -46z"/>
<path d="M5660 6477 c-1 -27 63 -107 76 -94 3 3 -4 10 -15 16 -11 7 -30 28
-40 49 -11 20 -20 33 -21 29z"/>
<path d="M7996 6344 c-47 -89 -125 -159 -231 -207 -32 -14 -34 -16 -11 -12 79
16 205 124 251 214 14 29 25 55 23 56 -2 2 -16 -21 -32 -51z"/>
<path d="M5758 6373 c6 -2 18 -2 25 0 6 3 1 5 -13 5 -14 0 -19 -2 -12 -5z"/>
<path d="M7198 6314 c-5 -21 -104 -169 -893 -1339 -156 -231 -158 -235 -151
-235 3 0 54 73 114 163 60 89 191 284 291 432 694 1031 654 970 649 987 -3 7
-7 3 -10 -8z"/>
<path d="M7053 5502 c-226 -339 -460 -689 -520 -777 -60 -88 -113 -167 -117
-175 -8 -13 -7 -13 7 0 27 26 1058 1570 1048 1570 -3 0 -191 -278 -418 -618z"/>
<path d="M7505 6109 c19 -7 173 -13 164 -5 -2 2 -44 6 -94 8 -50 3 -81 2 -70
-3z"/>
<path d="M7688 6113 c6 -2 18 -2 25 0 6 3 1 5 -13 5 -14 0 -19 -2 -12 -5z"/>
<path d="M4437 5586 c-122 -36 -234 -122 -290 -223 -32 -60 -57 -161 -55 -223
1 -38 2 -40 5 -10 15 155 51 241 136 324 102 100 217 143 361 133 44 -3 101
-12 125 -21 24 -9 46 -14 48 -12 2 2 -18 11 -44 21 -64 23 -223 29 -286 11z"/>
<path d="M4805 5533 c6 -5 33 -26 62 -47 102 -72 159 -183 173 -331 7 -78 7
-79 8 -20 2 74 -11 131 -45 204 -29 62 -119 159 -173 186 -19 9 -30 13 -25 8z"/>
<path d="M2575 4600 c0 -421 1 -593 2 -383 2 211 2 555 0 765 -1 211 -2 39 -2
-382z"/>
<path d="M4105 5051 c3 -24 15 -65 26 -92 l21 -48 -303 -338 c-167 -186 -421
-468 -564 -628 -277 -308 -305 -341 -305 -359 0 -6 12 7 26 29 15 22 32 45 38
50 6 6 47 50 91 100 44 49 143 160 220 245 77 85 199 220 270 300 71 80 146
163 166 185 57 64 218 243 297 332 39 45 72 85 72 91 0 5 -8 24 -17 43 -9 19
-23 57 -30 84 l-13 50 5 -44z"/>
<path d="M5032 5058 c3 -7 40 -35 84 -62 182 -112 474 -286 480 -286 3 0 24
-13 47 -29 l42 -28 50 33 c27 19 46 34 42 34 -4 0 -26 -12 -48 -27 -41 -27
-41 -27 -73 -9 -17 10 -51 30 -75 43 -114 65 -509 306 -530 324 -13 12 -21 15
-19 7z"/>
<path d="M4811 4734 c-30 -18 -81 -40 -115 -49 -52 -13 -54 -14 -16 -9 44 5
119 36 170 69 28 19 -22 45 420 -224 211 -129 209 -128 195 -113 -14 15 -583
362 -593 361 -4 -1 -31 -16 -61 -35z"/>
<path d="M5856 4754 c-26 -9 -46 -17 -44 -20 3 -2 19 1 36 7 17 6 52 14 79 19
41 7 43 8 13 8 -19 0 -57 -6 -84 -14z"/>
<path d="M6038 4763 c12 -2 32 -2 45 0 12 2 2 4 -23 4 -25 0 -35 -2 -22 -4z"/>
<path d="M6118 4753 c7 -3 16 -2 19 1 4 3 -2 6 -13 5 -11 0 -14 -3 -6 -6z"/>
<path d="M4235 4528 c-82 -94 -217 -246 -300 -338 -82 -92 -197 -220 -255
-285 -58 -66 -114 -128 -125 -139 -11 -12 -55 -61 -99 -111 -142 -163 -216
-234 -255 -245 -55 -15 -100 -12 -147 11 -42 20 -63 54 -77 124 -3 11 -3 4 -2
-16 4 -58 26 -92 75 -116 49 -25 94 -29 155 -12 54 14 -11 -55 894 959 140
157 264 295 275 307 21 23 23 23 91 8 39 -8 93 -14 120 -13 42 0 38 2 -27 9
-43 4 -95 13 -115 18 -21 6 -42 11 -48 10 -5 0 -77 -77 -160 -171z"/>
<path d="M6420 4529 c0 -3 9 -24 20 -46 33 -70 45 -171 30 -260 -39 -223 -221
-373 -453 -373 -142 0 -247 42 -344 137 -81 78 -133 210 -133 337 0 23 -5 48
-10 56 -5 8 -10 11 -10 6 0 -5 -7 -3 -15 4 -9 7 -18 10 -22 7 -3 -4 6 -12 21
-18 23 -11 26 -18 26 -59 0 -133 56 -267 148 -351 98 -90 198 -129 338 -129
326 0 542 293 449 607 -12 42 -44 99 -45 82z"/>
<path d="M2201 3934 c0 -11 3 -14 6 -6 3 7 2 16 -1 19 -3 4 -6 -2 -5 -13z"/>
<path d="M2578 3377 c1 -249 2 -485 2 -525 l0 -72 2781 0 c2081 0 2785 -3
2802 -11 11 -7 29 -21 40 -33 l18 -21 -11 23 c-6 12 -23 30 -37 40 -26 16
-176 17 -2805 17 l-2778 0 0 475 c-1 399 -4 546 -14 557 0 1 0 -202 2 -450z"/>
<path d="M2212 3490 c0 -14 2 -19 5 -12 2 6 2 18 0 25 -3 6 -5 1 -5 -13z"/>
<path d="M2212 3400 c0 -19 2 -27 5 -17 2 9 2 25 0 35 -3 9 -5 1 -5 -18z"/>
<path d="M2212 3335 c0 -16 2 -22 5 -12 2 9 2 23 0 30 -3 6 -5 -1 -5 -18z"/>
<path d="M2212 3145 c0 -16 2 -22 5 -12 2 9 2 23 0 30 -3 6 -5 -1 -5 -18z"/>
<path d="M2213 2940 c0 -36 2 -50 4 -32 2 17 2 47 0 65 -2 17 -4 3 -4 -33z"/>
<path d="M2212 2850 c0 -14 2 -19 5 -12 2 6 2 18 0 25 -3 6 -5 1 -5 -13z"/>
<path d="M2212 2760 c0 -19 2 -27 5 -17 2 9 2 25 0 35 -3 9 -5 1 -5 -18z"/>
<path d="M4888 2763 c7 -3 16 -2 19 1 4 3 -2 6 -13 5 -11 0 -14 -3 -6 -6z"/>
<path d="M4978 2763 c12 -2 30 -2 40 0 9 3 -1 5 -23 4 -22 0 -30 -2 -17 -4z"/>
<path d="M5048 2763 c7 -3 16 -2 19 1 4 3 -2 6 -13 5 -11 0 -14 -3 -6 -6z"/>
<path d="M5163 2763 c15 -2 37 -2 50 0 12 2 0 4 -28 4 -27 0 -38 -2 -22 -4z"/>
<path d="M5448 2763 c7 -3 16 -2 19 1 4 3 -2 6 -13 5 -11 0 -14 -3 -6 -6z"/>
<path d="M5488 2763 c6 -2 18 -2 25 0 6 3 1 5 -13 5 -14 0 -19 -2 -12 -5z"/>
<path d="M5598 2763 c7 -3 16 -2 19 1 4 3 -2 6 -13 5 -11 0 -14 -3 -6 -6z"/>
<path d="M5648 2763 c6 -2 18 -2 25 0 6 3 1 5 -13 5 -14 0 -19 -2 -12 -5z"/>
<path d="M5758 2763 c6 -2 18 -2 25 0 6 3 1 5 -13 5 -14 0 -19 -2 -12 -5z"/>
<path d="M5808 2763 c6 -2 18 -2 25 0 6 3 1 5 -13 5 -14 0 -19 -2 -12 -5z"/>
<path d="M6068 2763 c7 -3 16 -2 19 1 4 3 -2 6 -13 5 -11 0 -14 -3 -6 -6z"/>
<path d="M6158 2763 c6 -2 18 -2 25 0 6 3 1 5 -13 5 -14 0 -19 -2 -12 -5z"/>
<path d="M6208 2763 c7 -3 16 -2 19 1 4 3 -2 6 -13 5 -11 0 -14 -3 -6 -6z"/>
<path d="M6288 2763 c7 -3 16 -2 19 1 4 3 -2 6 -13 5 -11 0 -14 -3 -6 -6z"/>
<path d="M6408 2763 c7 -3 16 -2 19 1 4 3 -2 6 -13 5 -11 0 -14 -3 -6 -6z"/>
<path d="M6568 2763 c7 -3 16 -2 19 1 4 3 -2 6 -13 5 -11 0 -14 -3 -6 -6z"/>
<path d="M6618 2763 c7 -3 16 -2 19 1 4 3 -2 6 -13 5 -11 0 -14 -3 -6 -6z"/>
<path d="M6698 2763 c7 -3 16 -2 19 1 4 3 -2 6 -13 5 -11 0 -14 -3 -6 -6z"/>
<path d="M6798 2763 c6 -2 18 -2 25 0 6 3 1 5 -13 5 -14 0 -19 -2 -12 -5z"/>
<path d="M6938 2763 c7 -3 16 -2 19 1 4 3 -2 6 -13 5 -11 0 -14 -3 -6 -6z"/>
<path d="M7128 2763 c7 -3 16 -2 19 1 4 3 -2 6 -13 5 -11 0 -14 -3 -6 -6z"/>
<path d="M7188 2763 c7 -3 16 -2 19 1 4 3 -2 6 -13 5 -11 0 -14 -3 -6 -6z"/>
<path d="M7578 2763 c7 -3 16 -2 19 1 4 3 -2 6 -13 5 -11 0 -14 -3 -6 -6z"/>
<path d="M7808 2763 c6 -2 18 -2 25 0 6 3 1 5 -13 5 -14 0 -19 -2 -12 -5z"/>
<path d="M7903 2763 c9 -2 25 -2 35 0 9 3 1 5 -18 5 -19 0 -27 -2 -17 -5z"/>
<path d="M7968 2763 c6 -2 18 -2 25 0 6 3 1 5 -13 5 -14 0 -19 -2 -12 -5z"/>
<path d="M8221 2694 c0 -11 3 -14 6 -6 3 7 2 16 -1 19 -3 4 -6 -2 -5 -13z"/>
<path d="M2213 2520 c0 -25 2 -35 4 -22 2 12 2 32 0 45 -2 12 -4 2 -4 -23z"/>
<path d="M8221 2525 c-2 -53 -29 -96 -71 -111 -26 -9 -30 -13 -13 -13 52 -2
102 76 90 140 -3 16 -5 10 -6 -16z"/>
<path d="M2220 2461 c0 -17 51 -53 87 -62 49 -11 5815 -11 5788 1 -11 5 -1323
9 -2916 9 l-2897 1 -31 29 c-17 16 -31 26 -31 22z"/>
</g>
</svg>
