<svg width="175" height="175" viewBox="0 0 175 175" fill="none" xmlns="http://www.w3.org/2000/svg">
<path fill-rule="evenodd" clip-rule="evenodd" d="M111.691 22.006C110.61 22.2137 110.029 23.1841 108.977 26.5361C108.42 28.3098 106.236 35.2692 104.124 42.0016C102.011 48.7339 100.266 54.2617 100.247 54.2858C100.227 54.3096 99.2428 52.0673 98.0598 49.3028C94.1418 40.146 94.1675 40.199 93.4077 39.6869C92.5523 39.1104 90.7754 38.8638 88.8742 39.058C86.6774 39.2824 86.0161 39.751 85.5347 41.424C85.1011 42.9312 86.3006 44.8698 87.8453 45.1588C88.2509 45.2346 88.6753 45.4084 88.7885 45.5449C89.068 45.8817 90.1143 48.3021 96.0089 62.2493C96.7622 64.0317 97.628 65.7675 97.9327 66.1063C98.6397 66.8928 99.8163 67.1668 101.747 66.9948C103.668 66.8234 104.292 66.5058 104.744 65.4687C104.942 65.0138 106.777 59.328 108.821 52.834C110.865 46.34 113.337 38.5625 114.314 35.5504L116.09 30.0744L133.585 30.0259C149.439 29.9821 151.142 29.9438 151.74 29.6168C152.787 29.0447 153.036 28.3388 153.036 25.9527C153.036 23.5593 152.757 22.9269 151.391 22.2328C150.697 21.8799 149.328 21.8558 131.412 21.8831C120.834 21.8992 111.959 21.9544 111.691 22.006ZM23.8371 29.4411C23.4204 29.5388 22.8086 29.9212 22.4772 30.2908L21.875 30.9627L21.9309 91.0235C21.9861 150.297 21.9924 151.093 22.4138 151.788C23.3105 153.266 17.9022 153.158 87.9462 153.093C148.938 153.036 151.32 153.019 151.884 152.637C152.837 151.993 153.212 150.668 153.108 148.308C153.012 146.109 152.745 145.443 151.685 144.75C151.13 144.388 147.986 144.365 90.7293 144.312L30.3593 144.257L30.3022 127.63C30.2709 118.486 30.2196 93.2422 30.1881 71.5332C30.1568 49.8241 30.0714 31.7651 29.9986 31.402C29.8171 30.4971 29.0503 29.7332 28.0443 29.4546C27.079 29.1874 24.9487 29.1807 23.8371 29.4411ZM136.579 52.7376C131.367 53.997 128.221 58.8783 129.116 64.3164C129.204 64.8526 129.572 65.9399 129.932 66.7327L130.588 68.174L124.118 77.7817C120.559 83.066 116.654 88.8518 115.44 90.6392C114.226 92.4265 112.025 95.6782 110.549 97.8651L107.865 101.841L107.088 101.705C103.592 101.091 100.969 101.597 98.1546 103.431C97.6276 103.774 97.5615 103.762 96.5246 103.144C86.9399 97.432 84.3157 95.8481 84.084 95.6351C83.9049 95.4702 83.7874 94.6238 83.7493 93.2268C83.6957 91.2478 83.6259 90.9382 82.8902 89.4218C81.1383 85.811 77.4794 83.5981 73.2599 83.5981C67.4042 83.5981 62.9429 87.9413 62.9559 93.6287C62.9587 94.9037 63.3569 96.5736 63.9132 97.6458C64.2358 98.2674 64.2462 98.4204 63.9874 98.7291C63.0811 99.8093 45.2071 119.723 41.0098 124.329C38.9171 126.626 38.5287 127.338 38.673 128.613C38.8032 129.765 39.3544 130.579 40.3665 131.112C41.4184 131.666 43.7288 131.515 44.6957 130.829C45.0775 130.558 49.5084 125.743 54.542 120.129C59.5756 114.514 64.8384 108.654 66.2371 107.104C67.6361 105.555 68.9609 104.064 69.1815 103.789C69.5782 103.296 69.5962 103.294 70.8774 103.627C73.4825 104.303 76.2439 103.928 78.7497 102.556L80.0936 101.821L86.4649 105.737C89.9691 107.89 93.141 109.798 93.5137 109.976C94.1796 110.293 94.1933 110.331 94.3029 112.168C94.5463 116.257 96.9497 119.609 100.716 121.114C101.793 121.544 102.352 121.613 104.801 121.616L107.637 121.62L109.315 120.793C114.263 118.356 116.359 112.991 114.334 107.947C113.809 106.638 113.778 106.425 114.048 105.982C114.215 105.709 119.316 98.1043 125.384 89.0824L136.416 72.6788L139.076 72.6591C141.315 72.6424 141.936 72.5601 143.005 72.1378C145.421 71.1837 147.678 68.8731 148.626 66.3834C149.046 65.2818 149.124 64.6613 149.124 62.463C149.124 59.8848 149.114 59.8305 148.315 58.2192C146.142 53.8388 141.328 51.59 136.579 52.7376Z" fill="white"/>
</svg>
